<?xml version="1.0" encoding="UTF-8" standalone="no"?>
<!-- Created with Inkscape (http://www.inkscape.org/) -->

<svg
   xmlns:dc="http://purl.org/dc/elements/1.1/"
   xmlns:cc="http://creativecommons.org/ns#"
   xmlns:rdf="http://www.w3.org/1999/02/22-rdf-syntax-ns#"
   xmlns:svg="http://www.w3.org/2000/svg"
   xmlns="http://www.w3.org/2000/svg"
   xmlns:sodipodi="http://sodipodi.sourceforge.net/DTD/sodipodi-0.dtd"
   xmlns:inkscape="http://www.inkscape.org/namespaces/inkscape"
   width="10in"
   height="10in"
   viewBox="0 0 254.00001 254"
   version="1.1"
   id="svg8"
   inkscape:version="0.92.4 (5da689c313, 2019-01-14)"
   sodipodi:docname="sptk_logo_with_bg.svg"
   inkscape:export-filename="C:\Users\freel\Pictures\INKSCAPE\sptk_logo_new_sticker.png"
   inkscape:export-xdpi="96"
   inkscape:export-ydpi="96">
  <defs
     id="defs2" />
  <sodipodi:namedview
     id="base"
     pagecolor="#ffffff"
     bordercolor="#666666"
     borderopacity="1.0"
     inkscape:pageopacity="0.0"
     inkscape:pageshadow="2"
     inkscape:zoom="0.70710678"
     inkscape:cx="347.02747"
     inkscape:cy="539.77857"
     inkscape:document-units="in"
     inkscape:current-layer="g1421"
     showgrid="false"
     showborder="true"
     inkscape:snap-smooth-nodes="false"
     inkscape:snap-intersection-paths="true"
     inkscape:snap-center="false"
     inkscape:object-nodes="true"
     inkscape:snap-nodes="true"
     inkscape:object-paths="false"
     inkscape:snap-global="true"
     inkscape:window-width="1920"
     inkscape:window-height="1017"
     inkscape:window-x="1912"
     inkscape:window-y="892"
     inkscape:window-maximized="1"
     inkscape:pagecheckerboard="true"
     fit-margin-top="0"
     fit-margin-left="0"
     fit-margin-right="0"
     fit-margin-bottom="0"
     units="in"
     borderlayer="false"
     inkscape:snap-bbox="false"
     inkscape:snap-grids="false"
     inkscape:snap-bbox-edge-midpoints="true"
     inkscape:snap-object-midpoints="true"
     inkscape:bbox-nodes="false"
     inkscape:snap-midpoints="false"
     inkscape:bbox-paths="true"
     inkscape:snap-others="true"
     showguides="true"
     inkscape:guide-bbox="true"
     inkscape:lockguides="true"
     inkscape:snap-to-guides="true">
    <inkscape:grid
       type="xygrid"
       id="grid17"
       empspacing="1"
       dotted="false"
       units="in"
       enabled="true"
       spacingx="6.3500001"
       spacingy="6.3500001"
       originx="84.006959"
       originy="556.41089"
       snapvisiblegridlinesonly="false" />
  </sodipodi:namedview>
  <metadata
     id="metadata5">
    <rdf:RDF>
      <cc:Work
         rdf:about="">
        <dc:format>image/svg+xml</dc:format>
        <dc:type
           rdf:resource="http://purl.org/dc/dcmitype/StillImage" />
        <dc:title></dc:title>
      </cc:Work>
    </rdf:RDF>
  </metadata>
  <g
     inkscape:groupmode="layer"
     id="g2194"
     inkscape:label="bg_circle"
     style="display:inline">
    <path
       inkscape:connector-curvature="0"
       id="path2192"
       d="M 234.01558,123.80453 A 107.94997,107.94997 0 0 1 126.0656,231.75453 107.94997,107.94997 0 0 1 18.11565,123.80453 107.94997,107.94997 0 0 1 126.0656,15.854566 107.94997,107.94997 0 0 1 234.01558,123.80453 Z"
       style="display:inline;opacity:1;fill:#313a46;fill-opacity:1;stroke:none;stroke-width:0.35607481" />
  </g>
  <g
     style="display:inline"
     inkscape:label="highlight"
     id="g1421"
     inkscape:groupmode="layer">
    <path
       style="display:inline;opacity:1;fill:#fafbfe;fill-opacity:1;stroke:none;stroke-width:1.34579456"
       d="m 476.46875,37.921875 a 429.9999,429.9999 0 0 0 -430,430.000005 429.9999,429.9999 0 0 0 430,430 429.9999,429.9999 0 0 0 430,-430 429.9999,429.9999 0 0 0 -430,-430.000005 z m 0,25 a 404.99988,404.99988 0 0 1 405,405.000005 404.99988,404.99988 0 0 1 -94.72461,260.23242 C 700.42824,655.75195 611.96275,601.93515 526.25391,561.94922 l 40.45117,-14.51172 a 112.88744,113.90911 0 0 1 -28.08203,-11.23438 l -38.64844,13.86524 c -47.48776,-20.75825 -93.95102,-37.3419 -138.55273,-50.59961 l 229.93945,-43.6582 4.41406,-0.83789 a 16.340831,16.340831 0 0 0 0.002,0 16.340831,16.340831 0 0 0 10.85157,-10.28907 16.340831,16.340831 0 0 1 1.875,7.58399 16.340831,16.340831 0 0 1 -13.85743,16.13672 l -79.2539,15.05859 a 101.88033,106.51879 0 0 0 89.78711,56.36328 101.88033,106.51879 0 0 0 101.8789,-106.51953 101.88033,106.51879 0 0 0 -101.8789,-106.51953 101.88033,106.51879 0 0 0 -101.88086,106.51953 101.88033,106.51879 0 0 0 1.17969,15.38477 L 310.52148,485.51758 C 218.20413,462.35382 136.01301,453.09391 72.384766,449.63477 a 404.99988,404.99988 0 0 1 5.208984,-47.1836 l 407.58984,5.23438 a 112.88744,113.90911 0 0 1 4.81446,-14.58789 l -408.771488,-9.0293 a 404.99988,404.99988 0 0 1 32.042968,-93.92578 l 406.66406,61.25976 a 112.88744,113.90911 0 0 1 21.32422,-14.88672 L 122.30664,273.4082 A 404.99988,404.99988 0 0 1 476.46875,62.921875 Z M 72.332031,450.66406 c 8.914839,0.95526 17.763196,1.96568 26.515625,3.05664 9.896274,1.23355 19.690154,2.55309 29.382814,3.95508 9.69266,1.402 19.28508,2.88699 28.77734,4.45313 9.49227,1.56613 18.88462,3.21349 28.17969,4.93945 9.29507,1.72596 18.49267,3.53064 27.59375,5.41211 9.10108,1.88146 18.10527,3.83843 27.01563,5.87109 8.91029,2.03266 17.72649,4.14072 26.44921,6.32032 6.92735,1.73092 13.77904,3.52057 20.58985,5.34179 l -146.23242,27.76563 0.0156,0.0859 -64.074218,12.16602 a 404.99988,404.99988 0 0 1 -5.076172,-62.10937 404.99988,404.99988 0 0 1 0.863281,-17.25782 z m 263.806639,53.60547 c 2.04824,0.63809 4.10716,1.26785 6.14453,1.91406 8.17923,2.5943 16.27092,5.2546 24.27539,7.97852 8.00448,2.72391 15.92099,5.51015 23.75391,8.35937 7.83292,2.84923 15.58151,5.76026 23.24609,8.73047 7.66459,2.97022 15.24665,6.001 22.7461,9.08789 7.49945,3.0869 14.91639,6.23043 22.2539,9.42969 6.33029,2.76009 12.58884,5.56926 18.80079,8.41016 L 132.82422,681.7793 A 404.99988,404.99988 0 0 1 80.964844,552.8125 l 63.984376,-12.15039 -0.0156,-0.0879 z m 166.87305,66.01758 c 6.55218,3.19286 13.04349,6.42532 19.46289,9.70508 13.74193,7.02094 27.18402,14.23616 40.33594,21.6289 13.15192,7.39275 26.014,14.96333 38.60156,22.69336 12.58755,7.73003 24.90038,15.61954 36.94922,23.65235 12.04884,8.0328 23.83337,16.2087 35.36914,24.50976 11.53577,8.30106 22.82275,16.72692 33.87109,25.26172 11.04835,8.53481 21.85868,17.17808 32.44532,25.91211 9.68222,7.98794 19.16282,16.05816 28.47851,24.18555 A 404.99988,404.99988 0 0 1 476.46875,872.92188 404.99988,404.99988 0 0 1 144.39258,698.9375 Z"
       transform="scale(0.26458334)"
       id="path1419"
       inkscape:connector-curvature="0" />
  </g>
</svg>
